<svg width="45" height="45" viewBox="0 0 45 45" fill="none" xmlns="http://www.w3.org/2000/svg">
<path d="M39.6877 18C41.2644 18.9079 42.5429 20.2551 43.3672 21.8771C44.1914 23.4992 44.5259 25.326 44.3298 27.1349C44.1337 28.9437 43.4154 30.6564 42.2626 32.0641C41.1099 33.4718 39.5724 34.5136 37.8377 35.0625C37.2246 37.8447 35.6797 40.3342 33.4588 42.1186C31.2379 43.9031 28.4742 44.8755 25.6252 44.875H20.9377C20.5233 44.875 20.1259 44.7104 19.8328 44.4174C19.5398 44.1243 19.3752 43.7269 19.3752 43.3125C19.3752 42.8981 19.5398 42.5007 19.8328 42.2076C20.1259 41.9146 20.5233 41.75 20.9377 41.75H25.6252C27.5646 41.7506 29.4565 41.1499 31.0404 40.0305C32.6242 38.9112 33.8221 37.3284 34.4689 35.5H33.4377C33.0233 35.5 32.6259 35.3354 32.3328 35.0424C32.0398 34.7493 31.8752 34.3519 31.8752 33.9375V18.3125C31.8752 17.8981 32.0398 17.5007 32.3328 17.2076C32.6259 16.9146 33.0233 16.75 33.4377 16.75H35.0002C35.5064 16.75 36.0033 16.7906 36.4908 16.8687C36.139 13.4028 34.5133 10.1908 31.9285 7.85507C29.3437 5.51935 25.984 4.22622 22.5002 4.22622C19.0164 4.22622 15.6567 5.51935 13.0719 7.85507C10.4871 10.1908 8.86134 13.4028 8.50956 16.8687C9.00251 16.7897 9.50095 16.75 10.0002 16.75H11.5627C11.9771 16.75 12.3745 16.9146 12.6675 17.2076C12.9606 17.5007 13.1252 17.8981 13.1252 18.3125V33.9375C13.1252 34.3519 12.9606 34.7493 12.6675 35.0424C12.3745 35.3354 11.9771 35.5 11.5627 35.5H10.0002C7.93451 35.5023 5.9259 34.8223 4.28643 33.5656C2.64697 32.309 1.46845 30.546 0.933986 28.5507C0.39952 26.5553 0.53903 24.4393 1.33084 22.5314C2.12265 20.6235 3.52243 19.0305 5.31269 18C5.31269 13.4416 7.12351 9.06988 10.3468 5.8466C13.5701 2.62332 17.9418 0.8125 22.5002 0.8125C27.0586 0.8125 31.4303 2.62332 34.6536 5.8466C37.8769 9.06988 39.6877 13.4416 39.6877 18ZM10.0002 19.875C8.34259 19.875 6.75287 20.5335 5.58077 21.7056C4.40867 22.8777 3.75019 24.4674 3.75019 26.125C3.75019 27.7826 4.40867 29.3723 5.58077 30.5444C6.75287 31.7165 8.34259 32.375 10.0002 32.375V19.875ZM41.2502 26.125C41.2502 24.4674 40.5917 22.8777 39.4196 21.7056C38.2475 20.5335 36.6578 19.875 35.0002 19.875V32.375C36.6578 32.375 38.2475 31.7165 39.4196 30.5444C40.5917 29.3723 41.2502 27.7826 41.2502 26.125Z" fill="white"/>
</svg>
