<svg width="25" height="24" viewBox="0 0 25 24" fill="none" xmlns="http://www.w3.org/2000/svg">
<g clip-path="url(#clip0_404_2292)">
<path d="M22.2196 3.99994C22.1287 3.99058 22.0371 3.99058 21.9463 3.99994H3.2796C3.15997 4.00179 3.04112 4.01972 2.92627 4.05328L12.5596 13.6466L22.2196 3.99994Z" fill="#DC1A2C"/>
<path d="M23.2069 4.92676L13.5003 14.5934C13.2505 14.8418 12.9125 14.9811 12.5603 14.9811C12.208 14.9811 11.8701 14.8418 11.6203 14.5934L2.00028 5.00009C1.97071 5.10878 1.95503 5.22079 1.95361 5.33342V18.6668C1.95361 19.0204 2.09409 19.3595 2.34414 19.6096C2.59419 19.8596 2.93332 20.0001 3.28695 20.0001H21.9536C22.3072 20.0001 22.6464 19.8596 22.8964 19.6096C23.1465 19.3595 23.2869 19.0204 23.2869 18.6668V5.33342C23.2816 5.19453 23.2546 5.05731 23.2069 4.92676ZM4.20028 18.6668H3.27361V17.7134L8.12028 12.9068L9.06028 13.8468L4.20028 18.6668ZM21.9403 18.6668H21.0069L16.1469 13.8468L17.0869 12.9068L21.9336 17.7134L21.9403 18.6668Z" fill="#DC1A2C"/>
</g>
<defs>
<clipPath id="clip0_404_2292">
<rect width="24" height="24" fill="white" transform="translate(0.666504)"/>
</clipPath>
</defs>
</svg>
