<svg width="53" height="42" viewBox="0 0 53 42" fill="none" xmlns="http://www.w3.org/2000/svg">
<path fill-rule="evenodd" clip-rule="evenodd" d="M21.1163 1.94367C20.6573 3.70167 20.0252 4.00767 17.7882 3.56067C15.4692 3.09667 14.9283 3.40367 14.4083 5.47767C13.8973 7.51267 13.3562 7.83767 11.3263 7.32867C9.33525 6.82867 8.68225 7.18567 7.92025 9.18967C7.17425 11.1517 6.45025 11.5687 4.45125 11.1867C2.32125 10.7797 1.82625 11.1517 1.29625 13.5617C0.94925 15.1337 0.48725 16.9967 0.26925 17.7017C0.0502498 18.4067 0.93125 19.3867 2.22725 19.8797C4.04925 20.5717 4.47625 21.3367 4.11025 23.2487C3.75325 25.1197 4.14925 25.8847 5.73525 26.3887C7.21125 26.8567 7.83325 27.8887 7.83325 29.8707C7.83325 31.8457 8.43025 32.8427 9.83325 33.2097C11.1693 33.5587 11.8333 34.5737 11.8333 36.2667C11.8333 39.1717 12.1303 39.4267 16.6523 40.3967C19.5112 41.0097 20.0483 40.8127 20.5303 38.9717C21.0333 37.0467 21.5462 36.9017 25.7113 37.5047C31.2253 38.3037 31.8333 38.5997 31.8333 40.4787C31.8333 42.0737 33.0202 42.2327 37.7972 41.2767C40.5443 40.7277 40.9442 40.2807 40.5472 38.2047C40.1862 36.3137 40.6352 35.5657 42.5712 34.8297C44.5012 34.0957 44.9562 33.3417 44.5982 31.4717C44.2372 29.5807 44.6442 28.9327 46.4852 28.4707C48.1882 28.0437 48.8332 27.1747 48.8332 25.3067C48.8332 23.5737 49.4862 22.5617 50.8332 22.2097C52.9912 21.6447 53.1692 20.8487 52.2082 16.0447C51.6892 13.4507 51.1143 12.9197 48.8252 12.9197C46.9072 12.9197 45.9072 12.3097 45.5432 10.9197C45.1842 9.54567 44.1792 8.91967 42.3332 8.91967C40.4872 8.91967 39.4823 8.29367 39.1232 6.91967C38.7523 5.50267 37.7592 4.91967 35.7162 4.91967C33.8732 4.91967 32.8332 4.39967 32.8332 3.47867C32.8332 1.58967 32.2342 1.30567 26.5082 0.47467C22.1073 -0.16433 21.6343 -0.0353298 21.1163 1.94367ZM23.8333 4.30267C23.8333 6.84567 23.3363 7.81667 21.8333 8.20967C20.4993 8.55867 19.8333 9.57367 19.8333 11.2587C19.8333 12.9067 19.1383 14.0057 17.8333 14.4197C16.5483 14.8277 15.8333 15.9327 15.8333 17.5117C15.8333 19.2077 15.0642 20.2617 13.3522 20.9127C11.9882 21.4317 11.0503 22.4327 11.2692 23.1377C11.4873 23.8427 11.9373 25.6567 12.2692 27.1697C12.7362 29.3017 13.4503 29.9197 15.4463 29.9197C17.1793 29.9197 18.1912 30.5727 18.5432 31.9197C18.9142 33.3367 19.9073 33.9197 21.9503 33.9197C23.5353 33.9197 24.8333 34.3077 24.8333 34.7807C24.8333 35.2547 23.7083 35.4277 22.3333 35.1647C20.5322 34.8197 19.8333 35.1217 19.8333 36.2437C19.8333 38.3737 18.3813 39.0957 15.5312 38.3797C13.6193 37.8997 13.2333 37.2787 13.6133 35.2897C13.9803 33.3717 13.6003 32.6717 11.9613 32.2427C10.4263 31.8417 9.83325 30.9017 9.83325 28.8707C9.83325 26.9327 9.20925 25.8567 7.83325 25.4197C6.43225 24.9747 5.83325 23.9067 5.83325 21.8527C5.83325 19.9657 5.31925 18.9197 4.39225 18.9197C2.43125 18.9197 1.82025 17.6857 2.49825 15.0937C2.90925 13.5227 3.83425 12.9197 5.83325 12.9197C7.81225 12.9197 8.75825 12.3157 9.15525 10.7957C9.60025 9.09267 10.2143 8.79867 12.2493 9.30967C14.3853 9.84567 14.8903 9.53867 15.4323 7.38067C15.9833 5.18767 16.4772 4.90267 18.8333 5.41967C21.1863 5.93667 21.6842 5.65067 22.2302 3.47267C23.1222 -0.0803294 23.8333 0.287671 23.8333 4.30267ZM31.5432 4.91967C31.9072 6.31167 32.9072 6.91967 34.8332 6.91967C36.7592 6.91967 37.7593 7.52767 38.1232 8.91967C38.4823 10.2937 39.4872 10.9197 41.3332 10.9197C43.1532 10.9197 44.1842 11.5467 44.5282 12.8627C44.8392 14.0507 46.0662 14.9257 47.6852 15.1127C49.7362 15.3507 50.4043 16.0397 50.6493 18.1697C50.9043 20.3847 50.5643 20.9197 48.8993 20.9197C47.2812 20.9197 46.8332 21.5547 46.8332 23.8527C46.8332 25.9067 46.2342 26.9747 44.8332 27.4197C43.5282 27.8337 42.8332 28.9327 42.8332 30.5807C42.8332 32.2657 42.1672 33.2807 40.8332 33.6297C39.4162 34.0007 38.8332 34.9937 38.8332 37.0367C38.8332 39.5477 38.4613 39.9197 35.9502 39.9197C33.8492 39.9197 32.9152 39.3417 32.5102 37.7917C32.0812 36.1527 31.3813 35.7727 29.4633 36.1397C27.4853 36.5177 26.8523 36.1327 26.3843 34.2677C25.9313 32.4607 25.1083 31.9197 22.8143 31.9197C20.5003 31.9197 19.8333 31.4727 19.8333 29.9197C19.8333 28.3637 19.1663 27.9197 16.8333 27.9197C15.1833 27.9197 13.8333 27.5067 13.8333 27.0017C13.8333 26.4967 13.5623 25.3777 13.2313 24.5157C12.8193 23.4417 13.4583 22.6327 15.2542 21.9497C17.3752 21.1437 17.7642 20.4927 17.2803 18.5637C16.7833 16.5827 17.1372 16.0607 19.3542 15.5037C21.5882 14.9427 21.9272 14.4317 21.4172 12.3987C20.9112 10.3827 21.2482 9.85367 23.3752 9.31967C25.2103 8.85967 25.8972 8.06667 25.7782 6.54767C25.5133 3.16067 25.6893 2.91967 28.4272 2.91967C30.1793 2.91967 31.1902 3.56867 31.5432 4.91967ZM28.1973 10.4127C27.8512 11.3157 28.0472 12.5337 28.6332 13.1197C30.1572 14.6437 33.0432 13.2507 32.6452 11.1847C32.2022 8.88267 28.9983 8.32667 28.1973 10.4127ZM30.8333 11.4787C30.8333 12.3357 30.3763 12.7547 29.8173 12.4097C29.2583 12.0637 29.0592 11.3627 29.3762 10.8507C30.2332 9.46367 30.8333 9.72167 30.8333 11.4787Z" fill="white"/>
</svg>
