<svg width="18" height="18" viewBox="0 0 18 18" fill="none" xmlns="http://www.w3.org/2000/svg">
<path fill-rule="evenodd" clip-rule="evenodd" d="M13.4857 3.50618C13.078 3.50618 12.7104 3.75178 12.5544 4.12844C12.3984 4.5051 12.4846 4.93866 12.7729 5.22695C13.0612 5.51523 13.4948 5.60147 13.8714 5.44546C14.2481 5.28944 14.4937 4.92188 14.4937 4.51418C14.4937 3.95748 14.0424 3.50618 13.4857 3.50618ZM17.3497 5.5393C17.3334 4.84235 17.2028 4.1528 16.9633 3.4981C16.7497 2.93793 16.4173 2.43069 15.9889 2.0113C15.5729 1.58074 15.0645 1.25041 14.5021 1.0453C13.8491 0.798473 13.1588 0.664954 12.4609 0.650498C11.5705 0.600098 11.2849 0.600098 9.0001 0.600098C6.7153 0.600098 6.4297 0.600098 5.5393 0.650498C4.84139 0.664954 4.15107 0.798473 3.4981 1.0453C2.93671 1.25248 2.42872 1.58253 2.0113 2.0113C1.58074 2.42725 1.25041 2.93567 1.0453 3.4981C0.798473 4.15107 0.664954 4.84139 0.650498 5.5393C0.600098 6.4297 0.600098 6.7153 0.600098 9.0001C0.600098 11.2849 0.600098 11.5705 0.650498 12.4609C0.664954 13.1588 0.798473 13.8491 1.0453 14.5021C1.25041 15.0645 1.58074 15.5729 2.0113 15.9889C2.42872 16.4177 2.93671 16.7477 3.4981 16.9549C4.15107 17.2017 4.84139 17.3352 5.5393 17.3497C6.4297 17.4001 6.7153 17.4001 9.0001 17.4001C11.2849 17.4001 11.5705 17.4001 12.4609 17.3497C13.1588 17.3352 13.8491 17.2017 14.5021 16.9549C15.0645 16.7498 15.5729 16.4195 15.9889 15.9889C16.4192 15.5711 16.7519 15.0634 16.9633 14.5021C17.2028 13.8474 17.3334 13.1578 17.3497 12.4609C17.3497 11.5705 17.4001 11.2849 17.4001 9.0001C17.4001 6.7153 17.4001 6.4297 17.3497 5.5393ZM15.8377 12.3605C15.8316 12.8937 15.735 13.422 15.5521 13.9229C15.418 14.2884 15.2026 14.6187 14.9221 14.8889C14.6496 15.1665 14.32 15.3815 13.9561 15.5189C13.4552 15.7018 12.9269 15.7983 12.3937 15.8045C11.5537 15.8465 11.2429 15.8549 9.0337 15.8549C6.8245 15.8549 6.5137 15.8549 5.6737 15.8045C5.12005 15.8148 4.56876 15.7296 4.0441 15.5525C3.69616 15.4081 3.38164 15.1936 3.1201 14.9225C2.8413 14.6526 2.62857 14.322 2.4985 13.9565C2.29342 13.4484 2.17967 12.9081 2.1625 12.3605C2.1625 11.5205 2.1121 11.2097 2.1121 9.00047C2.1121 6.79127 2.1121 6.48047 2.1625 5.64047C2.16627 5.09535 2.26578 4.55514 2.4565 4.04447C2.60438 3.68991 2.83136 3.37386 3.1201 3.12047C3.3753 2.83165 3.6907 2.60227 4.0441 2.44847C4.55612 2.2637 5.09578 2.16713 5.6401 2.16287C6.4801 2.16287 6.7909 2.11247 9.0001 2.11247C11.2093 2.11247 11.5201 2.11247 12.3601 2.16287C12.8933 2.16898 13.4216 2.26555 13.9225 2.44847C14.3042 2.59014 14.6468 2.82046 14.9221 3.12047C15.1974 3.3785 15.4125 3.69396 15.5521 4.04447C15.7388 4.55597 15.8354 5.09596 15.8377 5.64047C15.8797 6.48047 15.8881 6.79127 15.8881 9.00047C15.8881 11.2097 15.8797 11.5205 15.8377 12.3605ZM9.00008 4.69079C6.62127 4.69543 4.69619 6.62677 4.69928 9.00558C4.70237 11.3844 6.63246 13.3107 9.01127 13.3092C11.3901 13.3076 13.3177 11.3788 13.3177 8.99999C13.3199 7.85497 12.8655 6.75633 12.055 5.94747C11.2446 5.13861 10.1451 4.68631 9.00008 4.69079ZM9.00033 11.7973C7.45547 11.7973 6.20312 10.5449 6.20312 9.00008C6.20312 7.45523 7.45547 6.20288 9.00033 6.20288C10.5452 6.20288 11.7975 7.45523 11.7975 9.00008C11.7975 9.74194 11.5028 10.4534 10.9782 10.978C10.4537 11.5026 9.74219 11.7973 9.00033 11.7973Z" fill="#DC1A2C"/>
</svg>
