<svg width="15" height="20" viewBox="0 0 15 20" fill="none" xmlns="http://www.w3.org/2000/svg">
<path d="M7.6665 9.5C7.00346 9.5 6.36758 9.23661 5.89874 8.76777C5.4299 8.29893 5.1665 7.66304 5.1665 7C5.1665 6.33696 5.4299 5.70107 5.89874 5.23223C6.36758 4.76339 7.00346 4.5 7.6665 4.5C8.32955 4.5 8.96543 4.76339 9.43427 5.23223C9.90311 5.70107 10.1665 6.33696 10.1665 7C10.1665 7.3283 10.1018 7.65339 9.9762 7.95671C9.85057 8.26002 9.66642 8.53562 9.43427 8.76777C9.20212 8.99991 8.92653 9.18406 8.62321 9.3097C8.3199 9.43534 7.99481 9.5 7.6665 9.5ZM7.6665 0C5.80999 0 4.02951 0.737498 2.71676 2.05025C1.404 3.36301 0.666504 5.14348 0.666504 7C0.666504 12.25 7.6665 20 7.6665 20C7.6665 20 14.6665 12.25 14.6665 7C14.6665 5.14348 13.929 3.36301 12.6163 2.05025C11.3035 0.737498 9.52302 0 7.6665 0Z" fill="#DC1A2C"/>
</svg>
