<svg width="88" height="48" viewBox="0 0 88 48" fill="none" xmlns="http://www.w3.org/2000/svg">
<path d="M31.3281 21.5476H33.4401L34.4961 22.0732L35.3761 22.9491L36.6081 21.898L37.3121 21.5476H39.6001L40.8321 22.2483L41.5361 23.6498L41.7121 24.5257V32.2337H39.6001L39.4241 24.7009L39.0721 23.825L38.7201 23.6498H37.4881L36.2561 24.3505L35.7281 25.0513L35.5521 32.2337H33.4401L33.2641 24.3505L33.0881 23.6498H31.5041L30.4481 24.1753L29.7441 24.8761L29.5681 32.2337H27.4561V21.898H29.5681L29.7441 22.5987L30.6241 21.898L31.3281 21.5476Z" fill="#2F302C"/>
<path d="M2.46387 17.8687H4.57587V23.6497H11.6159V17.8687H13.9039V32.2336H11.6159V25.7519H4.75187L4.57587 32.2336H2.46387V17.8687Z" fill="#2F302C"/>
<path d="M40.8238 2.01465H49.2718L49.9758 2.5402V3.59129L49.3598 4.90516V5.5183H47.5118V5.69348H49.7118L50.3278 3.59129L51.5598 3.76647L52.0878 4.29202V5.69348L51.7358 6.04385L51.5598 7.79567H50.6798L50.5038 8.4964L49.6238 8.67158L49.0958 8.32122V7.79567H40.9998L40.6478 8.4964L39.7678 8.67158L39.4158 8.32122V7.79567H38.5358L38.3598 6.04385L38.0078 5.69348V4.29202L38.7118 3.59129H39.7678L40.4718 4.72998V5.5183H41.1758V4.99275L40.4718 3.94166L39.9438 3.24093L40.2958 2.36501L40.8238 2.01465ZM47.5118 5.69348H49.0958H49.7118H47.5118ZM40.4718 5.5183V5.69348H47.5118V5.5183H40.4718Z" fill="#DC1A2C"/>
<path d="M46.9919 21.5476H49.6319L51.2159 22.2483L52.4479 23.4746L53.1519 25.0513L53.3279 26.1024V27.5038L53.1519 27.679L45.5839 27.8542L46.1119 29.606L46.8159 30.4819L47.5199 30.8323H49.4559L50.5119 30.1315L50.8639 29.2556H53.1519L52.6239 30.8323L51.9199 31.7082L49.8079 32.7593H47.3439L45.9359 32.2337L44.5279 31.1826L43.8239 30.1315L43.2959 28.3797V25.9272L43.8239 24.1753L44.5279 23.1242L45.9359 21.898L46.9919 21.5476ZM47.8719 23.1242L46.6399 23.6498L45.9359 24.5257L45.5839 25.4016V26.1024H51.0399L50.5119 24.3505L49.6319 23.4746L48.5759 23.1242H47.8719Z" fill="#2F302C"/>
<path d="M67.7595 21.5476H71.1035L72.6875 22.2483L73.5675 23.6498L73.7435 24.3505V32.2337H71.6315L71.4555 31.7082L69.8715 32.5841L69.3435 32.7593H67.2315L65.9995 32.2337L65.1195 31.533L64.5915 30.4819L64.4155 29.2556L64.9435 27.679L65.6475 26.8031L66.8795 26.1024L68.4635 25.752H71.6315L71.4555 24.1753L70.7515 23.4746L70.0475 23.2994H68.6395L67.2315 23.6498L66.8795 24.8761H64.7675L64.9435 23.6498L65.6475 22.5987L66.1755 22.0732L67.7595 21.5476ZM69.5195 27.3286L67.7595 27.679L66.8795 28.3797L66.7035 28.7301V30.1315L67.4075 30.8323L67.7595 31.0075H69.6955L71.1035 30.3067L71.6315 29.7812V27.3286H69.5195Z" fill="#2F302C"/>
<path d="M34.1442 7.18262L35.3762 7.3578L35.5522 8.58408L35.0242 8.93444L28.3362 9.81035L22.7042 10.6863L17.4242 11.9125L11.7922 13.4892L7.04019 15.0658L4.22419 16.1169L3.34419 15.9417L2.99219 15.5914L3.16819 14.5403L4.92819 13.8396L9.32819 12.2629L11.9682 11.387L17.2482 9.98554L21.4722 8.93444L30.4482 7.53298L34.1442 7.18262Z" fill="#2F302C"/>
<path d="M54.0317 7.35767H55.9677L60.1917 7.88321L67.4077 9.10949L73.5677 10.6861L78.6717 12.2628L81.3117 13.1387L84.4797 14.365L84.8317 15.2409L84.6557 15.7664L83.4237 15.9416L79.0237 14.365L74.4477 12.9635L70.0477 11.7372L64.5917 10.511L56.3197 9.28467L54.0317 8.93431L53.6797 8.58394V7.70803L54.0317 7.35767Z" fill="#2F302C"/>
<path d="M19.3601 21.5476H22.0001L23.7601 22.2483L24.9921 23.6498L25.5201 24.8761L25.6961 25.752V28.5549L24.9921 30.6571L24.1121 31.533L23.2321 32.2337L22.0001 32.7593H19.5361L17.4241 31.7082L16.3681 30.3067L15.8401 28.9053L15.6641 26.9783L16.0161 24.7009L16.8961 23.1242L18.1281 22.0732L19.3601 21.5476ZM20.4161 23.1242L19.0081 23.6498L18.3041 24.7009L17.9521 26.1024V28.2045L18.4801 29.9564L19.7121 31.0075H21.6481L22.7041 30.3067L23.4081 28.9053L23.5841 28.0294V26.1024L22.8801 24.1753L21.8241 23.2994L20.4161 23.1242Z" fill="#2F302C"/>
<path d="M33.0881 0.875977L33.7921 1.05116L33.6161 2.10225L32.9121 3.50371L32.7361 4.20444L33.2641 3.6789H33.6161L33.4401 4.55481L32.9121 5.08036H31.8561H31.5041L30.6241 5.95627L29.9201 5.6059L29.7441 5.25554L28.6881 6.13145L27.6321 5.95627L27.2801 5.6059L26.5761 6.30663L26.0481 6.13145L25.6961 5.43072L24.6401 6.83218L23.7601 6.48182L22.7041 7.35773L21.6481 7.18255L21.2961 7.53291L20.4161 7.35773L20.2401 6.657L19.5361 7.70809L19.1841 8.05846H18.3041L17.6001 7.70809L17.2481 8.58401L17.0721 8.75919H16.1921H15.4881L15.1361 9.10955H14.2561L13.5521 9.98547H12.6721L12.4961 8.93437L13.2001 7.88328L13.9041 7.35773H15.1361L15.3121 7.70809L15.6641 7.00736L16.0161 5.43072L16.8961 3.6789L17.6001 3.50371L17.7761 3.6789L17.6001 5.43072L17.0721 7.00736L17.7761 6.83218L18.6561 4.02926L19.1841 3.32853L20.0641 3.50371L19.7121 5.43072L19.0081 7.00736H18.6561L18.8321 7.35773L19.7121 6.13145L20.5921 5.43072L21.2961 5.6059L21.4721 6.13145L22.3521 5.25554L22.5281 4.72999L23.4081 4.90517L23.5841 5.6059H23.9361L24.2881 4.72999L25.3441 1.92707H26.0481V3.15335L25.5201 4.55481L26.4001 4.20444L26.7521 4.37963L26.9281 4.90517L27.6321 4.55481L28.5121 3.6789H29.3921L29.2161 4.55481L28.6881 5.25554L29.7441 4.20444H30.2721L30.6241 3.50371L31.1521 3.15335L31.8561 2.97817L33.0881 0.875977ZM31.1521 4.02926L30.6241 4.90517L30.8001 5.25554L31.5041 4.02926H31.1521ZM22.7041 5.78109L22.1761 6.48182L22.8801 6.13145L22.7041 5.78109ZM13.7281 8.40882L13.3761 9.10955L13.9041 8.75919L13.7281 8.40882Z" fill="#2F302C"/>
<path d="M57.3757 17.5181H60.0157V19.4451L59.6637 19.6203H58.2557L57.9037 19.7954L57.5517 21.8976H59.4877V23.4743H57.5517V32.2334H55.4397V23.4743H54.0317V21.8976H55.4397V20.1458L55.9677 18.5692L57.0237 17.6932L57.3757 17.5181Z" fill="#2F302C"/>
<path d="M60.5439 17.8687H62.6559V32.2336H60.5439V17.8687Z" fill="#2F302C"/>
<path d="M84.4799 21.5476H86.2399V23.4746L85.8879 23.6498H84.3039L83.2479 24.3505L82.8959 24.7009L82.7199 32.2337H80.6079V21.898H82.7199L82.8959 22.5987L83.9519 21.7228L84.4799 21.5476Z" fill="#2F302C"/>
<path d="M57.5518 1.05127H59.3118L60.1918 1.40163L60.3678 1.752V2.80309L59.8398 2.97828L59.4878 2.27755L58.2558 2.10236L56.1438 2.62791L56.8478 2.97828L58.6078 3.50382L59.1358 4.37974L59.8398 4.02937L60.7198 4.20455L60.5438 4.90528L62.1278 4.37974L62.6558 4.7301H63.8878L64.2398 5.08047L64.0638 5.95638L65.4718 5.43083L66.1758 5.08047L67.4078 5.25565L67.2318 6.13156H66.1758L65.6478 6.30674V6.65711L67.7598 6.13156L68.6398 5.7812H69.6958L70.0478 5.95638L69.8718 6.65711L68.8158 7.18266L70.5758 6.65711L70.3998 7.35784L68.9918 7.88339L67.9358 7.7082L67.5838 7.00747L66.7038 7.35784H65.4718L64.9438 7.00747L64.7678 6.48193L63.7118 6.83229L63.1838 6.30674V5.60601L61.7758 6.30674H61.2478V5.60601L60.3678 5.95638L59.6638 6.13156L59.3118 5.7812L59.1358 5.08047L56.4958 5.95638L55.0878 6.13156L54.7358 5.95638V5.43083L57.3758 4.55492H57.7278V4.02937L55.9678 3.50382L55.2638 2.97828L55.4398 2.10236L56.8478 1.22645L57.5518 1.05127Z" fill="#2F302C"/>
<path d="M76.0317 21.8977H78.3197V32.2335H76.0317V21.8977Z" fill="#2F302C"/>
<path d="M63.184 38.0144H64.064L63.888 39.2407L62.656 41.1677L61.952 42.0436H61.6L61.776 42.5691L63.536 41.1677L64.416 40.8173L64.768 40.9925L64.592 42.2188L65.296 41.8684L66.176 40.9925L67.056 40.8173L67.232 41.6932L67.408 41.8684L68.464 40.8173L69.168 40.9925H69.52L70.224 40.6421L71.28 40.8173L71.104 41.5181L69.872 42.394L71.632 41.5181H71.984L71.808 42.2188L70.752 43.0947L69.168 43.2699L68.816 42.7443L68.992 41.6932L67.936 42.2188L67.76 42.5691H67.408L67.056 43.2699L66.352 43.4451L66 43.0947V42.0436L64.592 43.2699L63.888 43.4451L63.536 42.9195V42.0436L62.304 43.2699L61.424 43.4451L60.896 42.9195L61.072 41.3429L61.952 39.591L63.184 38.0144Z" fill="#2F302C"/>
<path d="M11.2644 6.13135H11.7924V6.48171L12.3204 6.13135H13.0244L12.8484 6.83208L11.9684 7.35763L11.7924 7.88317V9.28463L12.1444 10.1605L11.6164 10.3357L11.0884 9.81018L10.9124 9.45982L10.2084 10.5109L9.50444 11.3868L8.44844 11.562L8.09644 10.8613L7.39244 11.562L6.68844 12.6131L6.33644 12.9635H5.10444L4.75244 12.6131V11.3868L5.28044 10.1605L5.10444 9.98536L5.28044 8.75909L6.33644 7.35763L7.39244 7.00726L7.74444 7.35763V8.23354H7.04044V7.88317H6.68844L6.51244 8.75909L7.39244 8.5839L7.21644 9.45982L6.33644 10.3357L5.80844 11.3868L5.63244 12.2627L6.33644 11.9124L7.56844 9.98536L7.92044 9.28463H8.27244L8.44844 9.81018L8.97644 8.23354L10.9124 6.83208L11.2644 6.13135ZM10.3844 8.05836L9.32844 8.75909L9.68044 8.93427L10.0324 9.635L10.5604 8.93427L10.7364 8.05836H10.3844ZM8.97644 9.98536L8.62444 10.6861L9.15244 10.5109L8.97644 9.98536Z" fill="#2F302C"/>
<path d="M23.4082 37.489H24.4642L25.1682 38.3649L24.9922 39.416L26.0482 38.8905L26.5762 38.3649H26.9282V39.0657L28.1602 38.8905L27.8082 39.7664H26.5762L26.2242 40.4671L25.8722 40.9927L25.6962 42.3941L25.8722 43.27H25.1682L24.9922 42.9197V41.6934L24.1122 42.3941H23.7602L23.9362 41.6934L25.1682 40.4671L25.3442 40.1168L24.2882 40.6423L23.0562 42.9197L22.8802 43.9708L22.0002 43.7956L21.8242 43.0949L22.8802 40.6423L23.0562 39.9416L23.7602 39.7664L24.1122 38.1897L23.0562 38.3649L22.3522 39.2408L22.0002 40.4671H21.4722L21.6482 39.2408L22.5282 38.0146L23.4082 37.489Z" fill="#2F302C"/>
<path d="M77.6158 5.95605H78.4958L79.9038 6.65678L82.0158 7.5327L82.3678 7.88306L82.1918 8.58379L80.6078 9.10934L78.8478 9.98525L78.3198 10.5108L77.7918 10.3356L77.9678 9.4597L79.3758 8.58379L80.4318 8.23343H81.1358V7.88306L79.3758 7.5327L78.4958 7.70788L77.2638 8.40861L76.2078 9.4597L76.0318 10.1604L75.3278 9.81007V8.93416L76.5598 7.88306H75.1518L74.7998 7.5327L74.9758 6.83197L75.8558 6.30642L77.6158 5.95605Z" fill="#2F302C"/>
<path d="M35.9039 38.0144L36.6079 38.1896L36.0799 39.9414L35.1999 41.1677L35.7279 40.8173H36.6079L36.7839 40.9925V42.0436L38.3679 40.8173L39.4239 40.6421L39.9519 40.9925L40.1279 42.0436L39.5999 42.9195L38.8959 43.4451H38.0159L37.4879 43.0947L37.3119 42.5691L36.4319 43.2699H35.9039L35.7279 42.9195V41.6932L34.3199 42.9195L33.9679 43.4451L33.4399 43.2699V41.6932L33.9679 41.1677H34.3199L34.8479 39.591L35.9039 38.0144ZM35.0239 41.1677L34.8479 41.5181H35.1999L35.0239 41.1677ZM38.8959 41.5181L38.3679 42.2188L38.5439 42.9195L39.4239 42.0436L39.2479 41.5181H38.8959Z" fill="#2F302C"/>
<path d="M48.0482 40.8176H48.5762V41.6935L48.4002 42.0439L50.1602 40.8176L50.8642 40.9928L50.5122 42.7446L50.3362 43.095H51.2162L51.5682 43.4454V43.9709L49.9842 43.6205L49.6322 44.6716L48.4002 46.7738L48.2242 46.949H47.1682L46.9922 46.2483L47.6962 44.8468L49.1042 43.4454L49.6322 42.2191L48.0482 43.095L47.3442 42.9198V42.2191H46.9922L47.3442 41.5184L48.0482 40.8176Z" fill="#2F302C"/>
<path d="M82.7196 8.58398L84.3036 8.75917L85.0076 9.28471V10.1606L84.8316 10.3358L81.8396 10.6862L81.3116 10.8614L83.2476 11.5621V12.438L82.5436 12.2628L80.0796 11.3869V10.511L81.1356 9.98544L84.1276 9.63508L82.5436 9.28471L82.7196 8.58398Z" fill="#2F302C"/>
<path d="M41.5362 40.6423L42.0642 40.8175L41.8882 41.8686L42.0642 41.6934L42.7682 40.8175L43.2962 40.9927V42.219H43.6482L43.8242 40.9927L44.5282 40.8175L44.7042 40.9927L44.5282 42.219L43.4722 43.2701L42.4162 43.0949L42.2402 42.5693L41.3602 43.4453L40.6562 43.0949V42.219L40.3042 42.0438L40.6562 41.3431L41.5362 40.6423Z" fill="#2F302C"/>
<path d="M55.264 40.8176L55.968 40.9928V41.8687L57.2 40.8176L57.904 40.9928L58.08 41.5184V41.8687L58.784 41.6935L58.608 42.3943L57.552 43.2702L56.848 42.9198L56.672 42.2191L55.44 43.2702L54.736 42.9198L54.208 42.0439L54.384 41.3432L55.264 40.8176Z" fill="#2F302C"/>
<path d="M52.7998 40.6423L53.6798 40.8175L54.0318 42.0438L53.3278 43.0949L52.7998 43.4453H51.7438L51.3918 43.0949V42.219H50.8638L51.2158 41.5182L52.2718 40.8175L52.7998 40.6423ZM52.7998 41.5182L52.0958 42.219V42.9197L52.7998 42.5693L53.1518 42.219V41.5182H52.7998Z" fill="#2F302C"/>
<path d="M29.92 40.4673L30.624 40.6425L30.976 41.8687L31.68 41.3432H32.032L31.856 42.0439L30.272 43.2702L29.216 43.6206L28.688 43.2702V42.5695L28.864 41.8687L29.744 40.8177L29.92 40.4673ZM29.92 41.5184L29.04 42.5695L29.568 42.7447L30.096 42.0439L29.92 41.5184Z" fill="#2F302C"/>
<path d="M76.0317 17.8687H78.3197V19.7957H76.0317V17.8687Z" fill="#2F302C"/>
<path d="M75.1519 5.25562L75.8559 5.4308L75.6799 6.13153L74.0959 7.35781L73.2159 8.58408L73.0399 9.10963H72.5119L72.3359 8.4089L73.0399 7.18262L74.0959 6.13153H74.4479L74.6239 5.4308L75.1519 5.25562Z" fill="#2F302C"/>
<path d="M29.04 37.8396L29.92 38.0148L29.568 39.0659L28.864 39.4162L28.688 39.0659L29.04 37.8396Z" fill="#2F302C"/>
<path d="M14.9597 42.5693L15.6637 42.7445L15.8397 43.4452L14.9597 43.6204L14.7837 42.7445L14.9597 42.5693Z" fill="#2F302C"/>
<path d="M69.5205 35.0364H71.2805V35.5619H69.6965L69.5205 35.0364Z" fill="#2F302C"/>
<path d="M66.7041 35.0364H68.4641V35.5619H66.8801L66.7041 35.0364Z" fill="#2F302C"/>
<path d="M27.9834 35.0364H29.7434V35.5619H28.1594L27.9834 35.0364Z" fill="#2F302C"/>
<path d="M25.168 35.0364H26.928V35.5619H25.344L25.168 35.0364Z" fill="#2F302C"/>
<path d="M12.8479 42.5693H13.3759L13.7279 43.4452L12.8479 43.6204L12.6719 42.7445L12.8479 42.5693Z" fill="#2F302C"/>
<path d="M63.8882 35.0364H65.6482L65.4722 35.5619H64.0642L63.8882 35.0364Z" fill="#2F302C"/>
<path d="M30.9756 35.0364H32.5596V35.5619H30.9756V35.0364Z" fill="#2F302C"/>
<path d="M19.5361 35.0364H21.1201V35.5619H19.5361V35.0364Z" fill="#2F302C"/>
<path d="M58.2563 35.0364H59.8403V35.5619H58.2563V35.0364Z" fill="#2F302C"/>
<path d="M22.3525 35.0364H23.9365V35.5619H22.3525V35.0364Z" fill="#2F302C"/>
<path d="M17.248 42.5693L17.952 42.9197V43.4452L17.248 43.6204L16.896 42.9197L17.248 42.5693Z" fill="#2F302C"/>
<path d="M61.0718 35.0364H62.6558V35.5619H61.2478L61.0718 35.0364Z" fill="#2F302C"/>
<path d="M20.7683 4.0293H21.2963V4.90521L20.5923 4.73003L20.7683 4.0293Z" fill="#2F302C"/>
<path d="M60.8959 2.62793L61.4239 3.15348L61.2479 3.50384L60.5439 3.32866V2.80311L60.8959 2.62793Z" fill="#2F302C"/>
<path d="M64.9438 39.241L65.2958 39.4161V40.1169L64.5918 39.9417V39.4161L64.9438 39.241Z" fill="#2F302C"/>
</svg>
