<svg width="110" height="61" viewBox="0 0 110 61" fill="none" xmlns="http://www.w3.org/2000/svg">
<path d="M39.16 27.0602H41.8L43.12 27.7202L44.22 28.8202L45.76 27.5002L46.64 27.0602H49.5L51.04 27.9402L51.92 29.7002L52.14 30.8002V40.4802H49.5L49.28 31.0202L48.84 29.9202L48.4 29.7002H46.86L45.32 30.5802L44.66 31.4602L44.44 40.4802H41.8L41.58 30.5802L41.36 29.7002H39.38L38.06 30.3602L37.18 31.2402L36.96 40.4802H34.32V27.5002H36.96L37.18 28.3802L38.28 27.5002L39.16 27.0602Z" fill="#2F302C"/>
<path d="M3.08002 22.4399H5.72002V29.6999H14.52V22.4399H17.38V40.4799H14.52V32.3399H5.94002L5.72002 40.4799H3.08002V22.4399Z" fill="#2F302C"/>
<path d="M52.0301 2.53015H62.5901L63.4701 3.19015V4.51015L62.7001 6.16015V6.93015H60.3901V7.15015H63.1401L63.9101 4.51015L65.4501 4.73015L66.1101 5.39015V7.15015L65.6701 7.59015L65.4501 9.79015H64.3501L64.1301 10.6702L63.0301 10.8902L62.3701 10.4502V9.79015H52.2501L51.8101 10.6702L50.7101 10.8902L50.2701 10.4502V9.79015H49.1701L48.9501 7.59015L48.5101 7.15015V5.39015L49.3901 4.51015H50.7101L51.5901 5.94015V6.93015H52.4701V6.27015L51.5901 4.95015L50.9301 4.07015L51.3701 2.97015L52.0301 2.53015ZM60.3901 7.15015H62.3701H63.1401H60.3901ZM51.5901 6.93015V7.15015H60.3901V6.93015H51.5901Z" fill="#2F302C"/>
<path d="M58.74 27.0602H62.04L64.02 27.9402L65.56 29.4802L66.44 31.4602L66.66 32.7802V34.5402L66.44 34.7602L56.98 34.9802L57.64 37.1802L58.52 38.2802L59.4 38.7202H61.82L63.14 37.8402L63.58 36.7402H66.44L65.78 38.7202L64.9 39.8202L62.26 41.1402H59.18L57.42 40.4802L55.66 39.1602L54.78 37.8402L54.12 35.6402V32.5602L54.78 30.3602L55.66 29.0402L57.42 27.5002L58.74 27.0602ZM59.84 29.0402L58.3 29.7002L57.42 30.8002L56.98 31.9002V32.7802H63.8L63.14 30.5802L62.04 29.4802L60.72 29.0402H59.84Z" fill="#2F302C"/>
<path d="M84.7 27.0602H88.88L90.86 27.9402L91.96 29.7002L92.18 30.5802V40.4802H89.54L89.32 39.8202L87.34 40.9202L86.68 41.1402H84.04L82.5 40.4802L81.4 39.6002L80.74 38.2802L80.52 36.7402L81.18 34.7602L82.06 33.6602L83.6 32.7802L85.58 32.3402H89.54L89.32 30.3602L88.44 29.4802L87.56 29.2602H85.8L84.04 29.7002L83.6 31.2402H80.96L81.18 29.7002L82.06 28.3802L82.72 27.7202L84.7 27.0602ZM86.9 34.3202L84.7 34.7602L83.6 35.6402L83.38 36.0802V37.8402L84.26 38.7202L84.7 38.9402H87.12L88.88 38.0602L89.54 37.4002V34.3202H86.9Z" fill="#2F302C"/>
<path d="M42.6799 9.02002L44.2199 9.24002L44.4399 10.78L43.7799 11.22L35.4199 12.32L28.3799 13.42L21.7799 14.96L14.7399 16.94L8.79993 18.92L5.27993 20.24L4.17993 20.02L3.73993 19.58L3.95993 18.26L6.15993 17.38L11.6599 15.4L14.9599 14.3L21.5599 12.54L26.8399 11.22L38.0599 9.46002L42.6799 9.02002Z" fill="#2F302C"/>
<path d="M67.5401 9.24011H69.9601L75.2401 9.90011L84.2601 11.4401L91.9601 13.4201L98.3401 15.4001L101.64 16.5001L105.6 18.0401L106.04 19.1401L105.82 19.8001L104.28 20.0201L98.7801 18.0401L93.0601 16.2801L87.5601 14.7401L80.7401 13.2001L70.4001 11.6601L67.5401 11.2201L67.1001 10.7801V9.68011L67.5401 9.24011Z" fill="#2F302C"/>
<path d="M24.2 27.0602H27.5L29.7 27.9402L31.24 29.7002L31.9 31.2402L32.12 32.3402V35.8602L31.24 38.5002L30.14 39.6002L29.04 40.4802L27.5 41.1402H24.42L21.78 39.8202L20.46 38.0602L19.8 36.3002L19.58 33.8802L20.02 31.0202L21.12 29.0402L22.66 27.7202L24.2 27.0602ZM25.52 29.0402L23.76 29.7002L22.88 31.0202L22.44 32.7802V35.4202L23.1 37.6202L24.64 38.9402H27.06L28.38 38.0602L29.26 36.3002L29.48 35.2002V32.7802L28.6 30.3602L27.28 29.2602L25.52 29.0402Z" fill="#2F302C"/>
<path d="M41.36 1.09998L42.24 1.31998L42.02 2.63998L41.14 4.39998L40.92 5.27998L41.58 4.61998H42.02L41.8 5.71998L41.14 6.37998H39.82H39.38L38.28 7.47998L37.4 7.03998L37.18 6.59998L35.86 7.69998L34.54 7.47998L34.1 7.03998L33.22 7.91998L32.56 7.69998L32.12 6.81998L30.8 8.57998L29.7 8.13998L28.38 9.23998L27.06 9.01998L26.62 9.45998L25.52 9.23998L25.3 8.35998L24.42 9.67998L23.98 10.12H22.88L22 9.67998L21.56 10.78L21.34 11H20.24H19.36L18.92 11.44H17.82L16.94 12.54H15.84L15.62 11.22L16.5 9.89998L17.38 9.23998H18.92L19.14 9.67998L19.58 8.79998L20.02 6.81998L21.12 4.61998L22 4.39998L22.22 4.61998L22 6.81998L21.34 8.79998L22.22 8.57998L23.32 5.05998L23.98 4.17998L25.08 4.39998L24.64 6.81998L23.76 8.79998H23.32L23.54 9.23998L24.64 7.69998L25.74 6.81998L26.62 7.03998L26.84 7.69998L27.94 6.59998L28.16 5.93998L29.26 6.15998L29.48 7.03998H29.92L30.36 5.93998L31.68 2.41998H32.56V3.95998L31.9 5.71998L33 5.27998L33.44 5.49998L33.66 6.15998L34.54 5.71998L35.64 4.61998H36.74L36.52 5.71998L35.86 6.59998L37.18 5.27998H37.84L38.28 4.39998L38.94 3.95998L39.82 3.73998L41.36 1.09998ZM38.94 5.05998L38.28 6.15998L38.5 6.59998L39.38 5.05998H38.94ZM28.38 7.25998L27.72 8.13998L28.6 7.69998L28.38 7.25998ZM17.16 10.56L16.72 11.44L17.38 11L17.16 10.56Z" fill="#2F302C"/>
<path d="M71.7199 21.9999H75.0199V24.4199L74.5799 24.6399H72.8199L72.3799 24.8599L71.9399 27.4999H74.3599V29.4799H71.9399V40.4799H69.2999V29.4799H67.5399V27.4999H69.2999V25.2999L69.9599 23.3199L71.2799 22.2199L71.7199 21.9999Z" fill="#2F302C"/>
<path d="M75.68 22.4399H78.32V40.4799H75.68V22.4399Z" fill="#2F302C"/>
<path d="M105.6 27.0602H107.8V29.4802L107.36 29.7002H105.38L104.06 30.5802L103.62 31.0202L103.4 40.4802H100.76V27.5002H103.4L103.62 28.3802L104.94 27.2802L105.6 27.0602Z" fill="#2F302C"/>
<path d="M71.9399 1.32007H74.1399L75.2399 1.76007L75.4599 2.20007V3.52007L74.7999 3.74007L74.3599 2.86007L72.8199 2.64007L70.1799 3.30007L71.0599 3.74007L73.2599 4.40007L73.9199 5.50007L74.7999 5.06007L75.8999 5.28007L75.6799 6.16007L77.6599 5.50007L78.3199 5.94007H79.8599L80.2999 6.38007L80.0799 7.48007L81.8399 6.82007L82.7199 6.38007L84.2599 6.60007L84.0399 7.70007H82.7199L82.0599 7.92007V8.36007L84.6999 7.70007L85.7999 7.26007H87.1199L87.5599 7.48007L87.3399 8.36007L86.0199 9.02007L88.2199 8.36007L87.9999 9.24007L86.2399 9.90007L84.9199 9.68007L84.4799 8.80007L83.3799 9.24007H81.8399L81.1799 8.80007L80.9599 8.14007L79.6399 8.58007L78.9799 7.92007V7.04007L77.2199 7.92007H76.5599V7.04007L75.4599 7.48007L74.5799 7.70007L74.1399 7.26007L73.9199 6.38007L70.6199 7.48007L68.8599 7.70007L68.4199 7.48007V6.82007L71.7199 5.72007H72.1599V5.06007L69.9599 4.40007L69.0799 3.74007L69.2999 2.64007L71.0599 1.54007L71.9399 1.32007Z" fill="#2F302C"/>
<path d="M95.0399 27.5H97.8999V40.48H95.0399V27.5Z" fill="#2F302C"/>
<path d="M78.9799 47.7399H80.0799L79.8599 49.2799L78.3199 51.6999L77.4399 52.7999H76.9999L77.2199 53.4599L79.4199 51.6999L80.5199 51.2599L80.9599 51.4799L80.7399 53.0199L81.6199 52.5799L82.7199 51.4799L83.8199 51.2599L84.0399 52.3599L84.2599 52.5799L85.5799 51.2599L86.4599 51.4799H86.8999L87.7799 51.0399L89.0999 51.2599L88.8799 52.1399L87.3399 53.2399L89.5399 52.1399H89.9799L89.7599 53.0199L88.4399 54.1199L86.4599 54.3399L86.0199 53.6799L86.2399 52.3599L84.9199 53.0199L84.6999 53.4599H84.2599L83.8199 54.3399L82.9399 54.5599L82.4999 54.1199V52.7999L80.7399 54.3399L79.8599 54.5599L79.4199 53.8999V52.7999L77.8799 54.3399L76.7799 54.5599L76.1199 53.8999L76.3399 51.9199L77.4399 49.7199L78.9799 47.7399Z" fill="#2F302C"/>
<path d="M14.08 7.69995H14.74V8.13995L15.4 7.69995H16.28L16.06 8.57995L14.96 9.23995L14.74 9.89995V11.66L15.18 12.76L14.52 12.98L13.86 12.32L13.64 11.88L12.76 13.2L11.88 14.3L10.56 14.52L10.12 13.64L9.24 14.52L8.36 15.84L7.92 16.28H6.38L5.94 15.84V14.3L6.6 12.76L6.38 12.54L6.6 11L7.92 9.23995L9.24 8.79995L9.68 9.23995V10.34H8.8V9.89995H8.36L8.14 11L9.24 10.78L9.02 11.88L7.92 12.98L7.26 14.3L7.04 15.4L7.92 14.96L9.46 12.54L9.9 11.66H10.34L10.56 12.32L11.22 10.34L13.64 8.57995L14.08 7.69995ZM12.98 10.12L11.66 11L12.1 11.22L12.54 12.1L13.2 11.22L13.42 10.12H12.98ZM11.22 12.54L10.78 13.42L11.44 13.2L11.22 12.54Z" fill="#2F302C"/>
<path d="M29.2601 47.08H30.5801L31.4601 48.18L31.2401 49.5L32.5601 48.84L33.2201 48.18H33.6601V49.06L35.2001 48.84L34.7601 49.94H33.2201L32.7801 50.82L32.3401 51.48L32.1201 53.24L32.3401 54.34H31.4601L31.2401 53.9V52.36L30.1401 53.24H29.7001L29.9201 52.36L31.4601 50.82L31.6801 50.38L30.3601 51.04L28.8201 53.9L28.6001 55.22L27.5001 55L27.2801 54.12L28.6001 51.04L28.8201 50.16L29.7001 49.94L30.1401 47.96L28.8201 48.18L27.9401 49.28L27.5001 50.82H26.8401L27.0601 49.28L28.1601 47.74L29.2601 47.08Z" fill="#2F302C"/>
<path d="M97.0201 7.47986H98.1201L99.8801 8.35986L102.52 9.45986L102.96 9.89986L102.74 10.7799L100.76 11.4399L98.5601 12.5399L97.9001 13.1999L97.2401 12.9799L97.4601 11.8799L99.2201 10.7799L100.54 10.3399H101.42V9.89986L99.2201 9.45986L98.1201 9.67986L96.5801 10.5599L95.2601 11.8799L95.0401 12.7599L94.1601 12.3199V11.2199L95.7001 9.89986H93.9401L93.5001 9.45986L93.7201 8.57986L94.8201 7.91986L97.0201 7.47986Z" fill="#2F302C"/>
<path d="M44.8799 47.7399L45.7599 47.9599L45.0999 50.1599L43.9999 51.6999L44.6599 51.2599H45.7599L45.9799 51.4799V52.7999L47.9599 51.2599L49.2799 51.0399L49.9399 51.4799L50.1599 52.7999L49.4999 53.8999L48.6199 54.5599H47.5199L46.8599 54.1199L46.6399 53.4599L45.5399 54.3399H44.8799L44.6599 53.8999V52.3599L42.8999 53.8999L42.4599 54.5599L41.7999 54.3399V52.3599L42.4599 51.6999H42.8999L43.5599 49.7199L44.8799 47.7399ZM43.7799 51.6999L43.5599 52.1399H43.9999L43.7799 51.6999ZM48.6199 52.1399L47.9599 53.0199L48.1799 53.8999L49.2799 52.7999L49.0599 52.1399H48.6199Z" fill="#2F302C"/>
<path d="M60.0599 51.26H60.7199V52.36L60.4999 52.8L62.6999 51.26L63.5799 51.48L63.1399 53.68L62.9199 54.12H64.0199L64.4599 54.56V55.22L62.4799 54.78L62.0399 56.1L60.4999 58.74L60.2799 58.96H58.9599L58.7399 58.08L59.6199 56.32L61.3799 54.56L62.0399 53.02L60.0599 54.12L59.1799 53.9V53.02H58.7399L59.1799 52.14L60.0599 51.26Z" fill="#2F302C"/>
<path d="M103.4 10.78L105.38 11L106.26 11.66V12.76L106.04 12.98L102.3 13.42L101.64 13.64L104.06 14.52V15.62L103.18 15.4L100.1 14.3V13.2L101.42 12.54L105.16 12.1L103.18 11.66L103.4 10.78Z" fill="#2F302C"/>
<path d="M51.9201 51.04L52.5801 51.26L52.3601 52.58L52.5801 52.36L53.4601 51.26L54.1201 51.48V53.02H54.5601L54.7801 51.48L55.6601 51.26L55.8801 51.48L55.6601 53.02L54.3401 54.34L53.0201 54.12L52.8001 53.46L51.7001 54.56L50.8201 54.12V53.02L50.3801 52.8L50.8201 51.92L51.9201 51.04Z" fill="#2F302C"/>
<path d="M69.08 51.26L69.96 51.48V52.58L71.5 51.26L72.38 51.48L72.6 52.14V52.58L73.48 52.36L73.26 53.24L71.94 54.34L71.06 53.9L70.84 53.02L69.3 54.34L68.42 53.9L67.76 52.8L67.98 51.92L69.08 51.26Z" fill="#2F302C"/>
<path d="M66 51.04L67.1 51.26L67.54 52.8L66.66 54.12L66 54.56H64.68L64.24 54.12V53.02H63.58L64.02 52.14L65.34 51.26L66 51.04ZM66 52.14L65.12 53.02V53.9L66 53.46L66.44 53.02V52.14H66Z" fill="#2F302C"/>
<path d="M37.4001 50.8202L38.2801 51.0402L38.7201 52.5802L39.6001 51.9202H40.0401L39.8201 52.8002L37.8401 54.3402L36.5201 54.7802L35.8601 54.3402V53.4602L36.0801 52.5802L37.1801 51.2602L37.4001 50.8202ZM37.4001 52.1402L36.3001 53.4602L36.9601 53.6802L37.6201 52.8002L37.4001 52.1402Z" fill="#2F302C"/>
<path d="M95.0399 22.4399H97.8999V24.8599H95.0399V22.4399Z" fill="#2F302C"/>
<path d="M93.94 6.60022L94.82 6.82022L94.6 7.70022L92.62 9.24022L91.52 10.7802L91.3 11.4402H90.64L90.42 10.5602L91.3 9.02022L92.62 7.70022H93.06L93.28 6.82022L93.94 6.60022Z" fill="#2F302C"/>
<path d="M36.3001 47.5201L37.4001 47.7401L36.9601 49.0601L36.0801 49.5001L35.8601 49.0601L36.3001 47.5201Z" fill="#2F302C"/>
<path d="M18.7 53.4601L19.58 53.6801L19.8 54.5601L18.7 54.7801L18.48 53.6801L18.7 53.4601Z" fill="#2F302C"/>
<path d="M86.9001 44H89.1001V44.66H87.1201L86.9001 44Z" fill="#2F302C"/>
<path d="M83.38 44H85.58V44.66H83.6L83.38 44Z" fill="#2F302C"/>
<path d="M34.9799 44H37.1799V44.66H35.1999L34.9799 44Z" fill="#2F302C"/>
<path d="M31.46 44H33.66V44.66H31.68L31.46 44Z" fill="#2F302C"/>
<path d="M16.06 53.4601H16.72L17.16 54.5601L16.06 54.7801L15.84 53.6801L16.06 53.4601Z" fill="#2F302C"/>
<path d="M79.8601 44H82.0601L81.8401 44.66H80.0801L79.8601 44Z" fill="#2F302C"/>
<path d="M38.7201 44H40.7001V44.66H38.7201V44Z" fill="#2F302C"/>
<path d="M24.42 44H26.4V44.66H24.42V44Z" fill="#2F302C"/>
<path d="M72.8201 44H74.8001V44.66H72.8201V44Z" fill="#2F302C"/>
<path d="M27.9401 44H29.9201V44.66H27.9401V44Z" fill="#2F302C"/>
<path d="M21.5601 53.4601L22.4401 53.9001V54.5601L21.5601 54.7801L21.1201 53.9001L21.5601 53.4601Z" fill="#2F302C"/>
<path d="M76.3399 44H78.3199V44.66H76.5599L76.3399 44Z" fill="#2F302C"/>
<path d="M25.9601 5.06006H26.6201V6.16006L25.7401 5.94006L25.9601 5.06006Z" fill="#2F302C"/>
<path d="M76.12 3.30005L76.78 3.96005L76.56 4.40005L75.68 4.18005V3.52005L76.12 3.30005Z" fill="#2F302C"/>
<path d="M81.1801 49.28L81.6201 49.5V50.38L80.7401 50.16V49.5L81.1801 49.28Z" fill="#2F302C"/>
</svg>
