<svg width="51" height="50" viewBox="0 0 51 50" fill="none" xmlns="http://www.w3.org/2000/svg">
<path d="M12.0748 37.4999H38.9248C40.8897 37.4999 42.774 36.7194 44.1633 35.3301C45.5527 33.9407 46.3332 32.0564 46.3332 30.0916V24.9999C46.3332 23.8948 45.8942 22.835 45.1128 22.0536C44.3314 21.2722 43.2716 20.8333 42.1665 20.8333C41.0614 20.8333 40.0016 21.2722 39.2202 22.0536C38.4388 22.835 37.9998 23.8948 37.9998 24.9999V27.4999C37.9998 27.9419 37.8242 28.3659 37.5117 28.6784C37.1991 28.991 36.7752 29.1666 36.3332 29.1666H14.6665C14.2245 29.1666 13.8006 28.991 13.488 28.6784C13.1754 28.3659 12.9998 27.9419 12.9998 27.4999V24.9999C12.9998 23.8948 12.5609 22.835 11.7794 22.0536C10.998 21.2722 9.93824 20.8333 8.83317 20.8333C7.7281 20.8333 6.66829 21.2722 5.88689 22.0536C5.10549 22.835 4.6665 23.8948 4.6665 24.9999V30.0916C4.6665 32.0564 5.44702 33.9407 6.83635 35.3301C8.22569 36.7194 10.11 37.4999 12.0748 37.4999Z" stroke="white" stroke-width="1.5"/>
<path d="M42.1663 20.8333C42.1663 18.8958 42.1663 17.9291 42.0059 17.125C41.6844 15.5083 40.8907 14.0233 39.7252 12.8578C38.5597 11.6922 37.0747 10.8985 35.458 10.577C34.6538 10.4166 33.6872 10.4166 31.7497 10.4166H19.2497C17.3122 10.4166 16.3455 10.4166 15.5413 10.577C13.9247 10.8985 12.4397 11.6922 11.2742 12.8578C10.1086 14.0233 9.31492 15.5083 8.99342 17.125C8.83301 17.9291 8.83301 18.8958 8.83301 20.8333" stroke="white" stroke-width="1.5"/>
<path d="M42.1663 39.5833V37.5M8.83301 39.5833V37.5" stroke="white" stroke-width="1.5" stroke-linecap="round"/>
</svg>
