<svg width="19" height="18" viewBox="0 0 19 18" fill="none" xmlns="http://www.w3.org/2000/svg">
<path d="M17.6765 12.38C16.4465 12.38 15.2565 12.18 14.1465 11.82C13.9726 11.7614 13.7857 11.7528 13.6071 11.7953C13.4286 11.8377 13.2655 11.9294 13.1365 12.06L11.5665 14.03C8.7365 12.68 6.0865 10.13 4.6765 7.2L6.6265 5.54C6.8965 5.26 6.9765 4.87 6.8665 4.52C6.4965 3.41 6.3065 2.22 6.3065 0.99C6.3065 0.45 5.8565 0 5.3165 0H1.8565C1.3165 0 0.666504 0.24 0.666504 0.99C0.666504 10.28 8.3965 18 17.6765 18C18.3865 18 18.6665 17.37 18.6665 16.82V13.37C18.6665 12.83 18.2165 12.38 17.6765 12.38Z" fill="#DC1A2C"/>
</svg>
