<svg width="71" height="72" viewBox="0 0 71 72" fill="none" xmlns="http://www.w3.org/2000/svg">
<path d="M0.5 0.75H59C65.6274 0.75 71 6.12258 71 12.75V59.25C71 65.8774 65.6274 71.25 59 71.25H0.5V0.75Z" fill="#2F302C"/>
<path fill-rule="evenodd" clip-rule="evenodd" d="M32.2494 42.5527C32.5255 42.8158 32.9725 42.8158 33.2478 42.5527L39.0864 36.9748C39.6379 36.448 39.6379 35.5933 39.0864 35.0665L33.2055 29.4474C32.9322 29.187 32.4909 29.1837 32.2141 29.4407C31.9317 29.7031 31.9282 30.1355 32.2064 30.4019L37.5888 35.5434C37.8649 35.8071 37.8649 36.2341 37.5888 36.4979L32.2494 41.5989C31.9734 41.8619 31.9734 42.2896 32.2494 42.5527Z" fill="white"/>
</svg>
