<svg width="25" height="26" viewBox="0 0 25 26" fill="none" xmlns="http://www.w3.org/2000/svg">
<path fill-rule="evenodd" clip-rule="evenodd" d="M0.0546875 13.0001C0.0546875 6.12723 5.62626 0.555664 12.4991 0.555664C15.7996 0.555664 18.9649 1.86677 21.2987 4.20056C23.6325 6.53434 24.9436 9.69964 24.9436 13.0001C24.9436 19.873 19.372 25.4446 12.4991 25.4446C5.62626 25.4446 0.0546875 19.873 0.0546875 13.0001ZM12.1379 17.617L18.3602 11.3948C18.8481 10.9068 18.8481 10.1157 18.3602 9.6277C17.8722 9.13972 17.081 9.13972 16.593 9.6277L11.2544 14.9788L8.4046 12.1166C8.08894 11.8009 7.62885 11.6776 7.19765 11.7932C6.76644 11.9087 6.42963 12.2455 6.31409 12.6767C6.19855 13.1079 6.32183 13.568 6.63749 13.8837L10.3708 17.617C10.6045 17.8526 10.9226 17.9851 11.2544 17.9851C11.5862 17.9851 11.9043 17.8526 12.1379 17.617Z" fill="#DC1A2C"/>
</svg>
