<svg width="34" height="34" viewBox="0 0 34 34" fill="none" xmlns="http://www.w3.org/2000/svg">
<path fill-rule="evenodd" clip-rule="evenodd" d="M16.9996 0.333374C26.2045 0.333374 33.6664 7.79525 33.6664 17C33.6664 26.2047 26.2045 33.6667 16.9996 33.6667C7.79496 33.6667 0.333008 26.2048 0.333008 17C0.333008 7.79525 7.79496 0.333374 16.9996 0.333374ZM18.67 15.3334H15.3367V25.3334H18.67V15.3334ZM17.0166 8.25001C15.8014 8.25001 14.92 9.12658 14.92 10.3102C14.92 11.5418 15.7782 12.4167 17.0166 12.4167C18.2068 12.4167 19.0867 11.5417 19.0867 10.3334C19.0867 9.12666 18.2068 8.25001 17.0166 8.25001Z" fill="#DC1A2C"/>
</svg>
