<svg width="30" height="30" viewBox="0 0 30 30" fill="none" xmlns="http://www.w3.org/2000/svg">
<path fill-rule="evenodd" clip-rule="evenodd" d="M13.8217 0.488343C14.1342 0.175892 14.5581 0.000366211 15 0.000366211C15.442 0.000366211 15.8658 0.175892 16.1784 0.488343L26.1784 10.4883L29.5117 13.8217C29.8153 14.136 29.9833 14.557 29.9795 14.994C29.9757 15.431 29.8004 15.849 29.4914 16.158C29.1824 16.4671 28.7644 16.6423 28.3274 16.6461C27.8904 16.6499 27.4694 16.4819 27.155 16.1783L26.6667 15.69V26.6667C26.6667 27.5507 26.3155 28.3986 25.6904 29.0237C25.0653 29.6488 24.2174 30 23.3334 30H18.3334C17.8913 30 17.4674 29.8244 17.1549 29.5119C16.8423 29.1993 16.6667 28.7754 16.6667 28.3333V23.3333H13.3334V28.3333C13.3334 28.7754 13.1578 29.1993 12.8452 29.5119C12.5326 29.8244 12.1087 30 11.6667 30H6.66669C5.78264 30 4.93479 29.6488 4.30967 29.0237C3.68455 28.3986 3.33336 27.5507 3.33336 26.6667V15.69L2.84503 16.1783C2.53069 16.4819 2.10969 16.6499 1.67269 16.6461C1.2357 16.6423 0.817677 16.4671 0.508663 16.158C0.19965 15.849 0.0243682 15.431 0.0205708 14.994C0.0167735 14.557 0.184764 14.136 0.488361 13.8217L3.82169 10.4883L13.8217 0.488343Z" fill="white"/>
</svg>
